<svg xmlns="http://www.w3.org/2000/svg" viewBox="0 0 200 200" fill="none">
  <!-- Main Triangular H/A Shape -->
  <path d="M100 25 L170 160 Q175 170 165 170 L145 170 Q140 170 138 165 L100 95 L62 165 Q60 170 55 170 L35 170 Q25 170 30 160 L100 25" 
        fill="none" 
        stroke="#5B8A8A" 
        stroke-width="4" 
        stroke-linecap="round" 
        stroke-linejoin="round"/>
  
  <!-- Inner H crossbar -->
  <path d="M65 130 L95 70 L100 75 L70 135" 
        fill="none" 
        stroke="#5B8A8A" 
        stroke-width="3"/>
  
  <!-- Circuit lines on left -->
  <line x1="30" y1="95" x2="55" y2="95" stroke="#5B8A8A" stroke-width="3"/>
  <line x1="25" y1="125" x2="60" y2="125" stroke="#5B8A8A" stroke-width="3"/>
  
  <!-- Circuit nodes -->
  <circle cx="25" cy="95" r="6" fill="none" stroke="#5B8A8A" stroke-width="2"/>
  <circle cx="20" cy="125" r="6" fill="none" stroke="#5B8A8A" stroke-width="2"/>
  
  <!-- Play button triangle -->
  <polygon points="115,100 115,140 145,120" fill="#5B8A8A"/>
  
  <!-- Floating squares (top right) -->
  <rect x="145" y="35" width="10" height="10" fill="#5B8A8A" rx="1"/>
  <rect x="160" y="30" width="8" height="8" fill="#5B8A8A" rx="1"/>
  <rect x="155" y="45" width="6" height="6" fill="#5B8A8A" rx="1"/>
  <rect x="168" y="42" width="7" height="7" fill="#5B8A8A" rx="1"/>
  <rect x="162" y="55" width="5" height="5" fill="#5B8A8A" rx="1"/>
  <rect x="175" y="52" width="6" height="6" fill="#5B8A8A" rx="1"/>
  <rect x="172" y="38" width="4" height="4" fill="#5B8A8A" rx="1"/>
</svg>
